#!OML:ASF F:\VICON\USERDATA\INSTALL\rory3\rory3.ASF
:FULLY-SPECIFIED
:DEGREES
3174
root 0.0835135 15.2609 -2.56027 12.703 0.97468 0.449563
lowerback 38.4236 0.477708 1.41812
upperback 13.1441 1.34021 3.0601
thorax -4.28437 0.564904 2.00801
lowerneck -21.2567 7.19871 -1.83308
upperneck -0.344567 10.0184 1.60832
head 2.98163 5.12618 1.60815
rclavicle 3.18055e-014 2.70347e-014
rhumerus 57.3841 20.4975 -47.0724
rradius 46.7153
rwrist 30.7129
rhand -36.3769 25.9356
rfingers 7.12502
rthumb -9.4735 -3.83142
lclavicle 3.18055e-014 2.70347e-014
lhumerus 33.471 -37.0904 54.0518
lradius 36.5785
lwrist -6.66807
lhand -41.0642 -6.07885
lfingers 7.12502
lthumb -13.9935 23.4302
rfemur -43.3347 2.02604 14.6062
rtibia 48.1416
rfoot -13.2748 -6.69554
rtoes -17.405
lfemur -42.0025 -2.60946 -14.2614
ltibia 43.7593
lfoot -9.44617 -0.384545
ltoes -13.2949
3175
root 0.0910702 15.2583 -2.5601 12.8445 0.621417 0.157046
lowerback 37.9909 0.686226 1.39086
upperback 13.4726 1.57519 3.35768
thorax -3.80343 0.662406 2.25812
lowerneck -20.927 7.22713 -2.14476
upperneck -1.40698 10.1574 1.18601
head 2.99073 5.17881 1.68118
rclavicle 1.59028e-015 1.19271e-014
rhumerus 57.8426 20.266 -46.8137
rradius 46.5242
rwrist 31.471
rhand -37.6728 27.288
rfingers 7.12502
rthumb -10.7237 -2.41831
lclavicle 1.59028e-015 1.19271e-014
lhumerus 31.8751 -37.708 55.4142
lradius 37.678
lwrist -4.88678
lhand -40.7553 -6.69889
lfingers 7.12502
lthumb -13.6958 22.8304
rfemur -43.5766 2.42707 14.8313
rtibia 48.1355
rfoot -13.166 -6.76783
rtoes -17.7616
lfemur -42.178 -2.29544 -13.9896
ltibia 43.904
lfoot -9.55806 -0.28624
ltoes -13.5226
3176
root 0.100923 15.2668 -2.55229 12.8358 0.40338 0.153289
lowerback 38.1244 0.63379 1.62848
upperback 13.4636 1.57897 3.18314
thorax -3.8414 0.67703 1.94878
lowerneck -20.8369 7.25429 -1.99545
upperneck -1.81555 10.1578 1.25519
head 2.83218 5.18932 1.65686
rclavicle 7.95139e-015 7.15625e-015
rhumerus 57.6912 20.1121 -47.5612
rradius 46.1798
rwrist 32.7016
rhand -39.2277 29.3057
rfingers 7.12502
rthumb -12.2232 -0.317122
lclavicle 7.95139e-015 7.15625e-015
lhumerus 30.2786 -38.6623 56.1029
lradius 39.0471
lwrist -3.36284
lhand -40.4713 -6.43077
lfingers 7.12502
lthumb -13.4221 23.1168
rfemur -43.5356 2.51172 14.7888
rtibia 48.1336
rfoot -13.1706 -6.53758
rtoes -16.5055
lfemur -42.0665 -2.17825 -14.0526
ltibia 43.937
lfoot -9.67343 -0.221542
ltoes -13.6342
3177
root 0.107219 15.2755 -2.54601 12.7711 0.268078 0.275417
lowerback 38.9982 0.407888 2.08667
upperback 12.9674 1.46635 2.67276
thorax -4.62909 0.649944 1.20422
lowerneck -20.9791 7.29804 -1.6282
upperneck -1.63737 10.1057 1.66505
head 2.92031 5.17877 1.74058
rclavicle 8.74653e-015 1.31198e-014
rhumerus 56.9524 20.2653 -48.9501
rradius 45.9265
rwrist 33.677
rhand -40.2067 30.2908
rfingers 7.12502
rthumb -13.1671 0.726611
lclavicle 8.74653e-015 1.31198e-014
lhumerus 28.4893 -39.9494 56.3276
lradius 40.5043
lwrist -2.55868
lhand -40.5825 -6.2264
lfingers 7.12502
lthumb -13.5293 23.3141
rfemur -43.4308 2.52335 14.6369
rtibia 48.169
rfoot -13.1249 -6.29499
rtoes -13.8919
lfemur -41.8819 -2.11483 -14.2365
ltibia 43.9036
lfoot -9.75036 -0.234083
ltoes -13.6727
3178
root 0.111926 15.2748 -2.54533 12.8204 0.106741 0.356494
lowerback 39.3068 0.3694 2.32426
upperback 12.7798 1.49777 2.42952
thorax -4.91673 0.676368 0.81018
lowerneck -21.024 7.29688 -1.5049
upperneck -1.70208 10.0672 1.8477
head 2.90305 5.16908 1.77647
rclavicle -7.95139e-015 -6.36111e-015
rhumerus 56.531 20.2114 -49.6934
rradius 45.8201
rwrist 34.1283
rhand -40.7401 30.7866
rfingers 7.12502
rthumb -13.6811 1.25632
lclavicle -7.95139e-015 -6.36111e-015
lhumerus 27.4028 -40.8379 56.4468
lradius 41.8259
lwrist -2.60673
lhand -40.8946 -6.54749
lfingers 7.12502
lthumb -13.83 22.9727
rfemur -43.5472 2.57951 14.517
rtibia 48.2388
rfoot -13.0705 -6.13938
rtoes -12.59
lfemur -41.8688 -1.97498 -14.3718
ltibia 43.856
lfoot -9.78728 -0.268782
ltoes -13.9128
3179
root 0.115868 15.2676 -2.54717 12.9136 -0.0631194 0.524574
lowerback 39.2653 0.452817 2.33935
upperback 12.8193 1.59034 2.33066
thorax -4.85662 0.725248 0.664817
lowerneck -20.9155 7.26133 -1.47619
upperneck -2.04667 10.0209 1.82778
head 2.76402 5.14943 1.74086
rclavicle 2.22639e-014 2.46493e-014
rhumerus 56.3855 19.9565 -50.0407
rradius 45.5893
rwrist 34.5318
rhand -41.2848 31.6034
rfingers 7.12502
rthumb -14.206 2.10922
lclavicle 2.22639e-014 2.46493e-014
lhumerus 26.9989 -41.4796 56.2541
lradius 43.0844
lwrist -3.44401
lhand -41.0468 -6.94268
lfingers 7.12502
lthumb -13.9767 22.5675
rfemur -43.753 2.6556 14.2807
rtibia 48.3173
rfoot -13.0701 -6.17923
rtoes -14.1089
lfemur -41.9551 -1.82163 -14.605
ltibia 43.8424
lfoot -9.81589 -0.316468
ltoes -13.5641
